<svg xmlns="http://www.w3.org/2000/svg" xmlns:xlink="http://www.w3.org/1999/xlink" width="250" height="355" viewBox="0 0 250 355">
    <defs>
        <path id="a" d="M.095.532h238.853V241.77H.095V.532z"/>
    </defs>
    <g fill="none" fill-rule="evenodd">
        <g transform="translate(10.415 .074)">
            <mask id="b" fill="#fff">
                <use xlink:href="#a"/>
            </mask>
            <path fill="#333" d="M90.456 241.77a65.03 65.03 0 0 1-19.2-2.9 65.123 65.123 0 0 1-44.259-47.763L1.723 80.145c-5.165-22.691 2.154-46.414 19.205-62.237A65.06 65.06 0 0 1 84.392 3.432L193.06 37.01c22.22 6.865 39.091 25.072 44.26 47.763a65.165 65.165 0 0 1-19.205 62.237l-83.393 77.385a65.071 65.071 0 0 1-44.265 17.376" mask="url(#b)"/>
        </g>
        <path fill="#0DECFF" d="M89.67 70.233c2.503-.315 8.504-.534 17.484 2.387l70.997 29.872c.325.135.669.203 1.01.203a2.606 2.606 0 0 0 2.604-2.605V67.803c0-.436-.11-.865-.315-1.246-.271-.497-1.076-1.735-2.708-2.53-1.427-.693-3.9-.948-4.624-1.008-.219-.01-48.605-.005-53.852.091-5.249.1-9.36-.036-22.108.701-.476.034-1.507.057-2.332.315C78.993 65.83 58.494 73.381 53.084 99.1c-1.214 5.373-.893 10.683 1.005 16.41.731 2.214 1.874 4.541 3.424 6.97 1.486 2.404 3.163 4.538 4.934 6.292 2.283 2.18 5.61 4.973 10.542 7.128 5.637 2.465 10.766 4.39 19.228 7.809 3.856 1.558 12.448 5.05 22.699 9.119 10.573 4.197 20.91 7.907 22.933 8.668.9.339 1.702.678 2.455 1.022 1.416.854 2.434 1.98 2.606 3.355.162 1.29-.354 2.53-2.481 3.552a73.04 73.04 0 0 1-11.558 1.818c-4.416-.18-8.701-1.782-9.753-2.222L74.66 150.396a2.602 2.602 0 0 0-3.609 2.405v19.416c0 .42.102.83.295 1.2.203.39.802 1.36 2.013 1.981.973.5 2.473.677 3.072.73.229.01 12.013.354 24.157.351 12.578-.002 25.557-.351 26.846-.51l.414-.11c7.426-.448 16.992-2.04 26.461-6.506 6.806-2.55 14.448-7.759 15.81-8.952 4.95-4.218 8.63-9.135 10.307-15.008 1.7-5.844 1.11-11.537-.854-17.459-1.562-4.724-4.067-8.69-7.438-11.782-3.424-3.137-8.462-5.95-15.016-8.379L81.615 77.537c-5.445.601-12.47 4.564-12.834 4.66-.671.178-1.757.613-.94-1.125l.433-.61.437-.492c.341-.357.573-.578.83-.805.28-.245.573-.487.894-.737 1.65-1.287 4.001-2.733 7.167-4.21 3.672-1.772 7.655-3.08 12.068-3.985z"/>
        <path fill="#FFF" d="M10.719 276.893c-1.222 0-2.357.167-3.422.49-1.06.328-1.989.81-2.79 1.44a6.636 6.636 0 0 0-1.88 2.372c-.451.95-.675 2.034-.675 3.254 0 .925.14 1.727.424 2.402.276.677.7 1.266 1.268 1.764.565.495 1.268.93 2.117 1.303.846.372 1.84.716 2.994 1.034a93.7 93.7 0 0 1 2.573.711 12.23 12.23 0 0 1 1.963.743c.541.274.958.589 1.25.95.294.36.44.811.44 1.353 0 1.65-1.287 2.475-3.856 2.475-.927 0-1.83-.112-2.708-.341-.88-.224-1.682-.5-2.403-.828a16.976 16.976 0 0 1-1.88-.985c-.531-.323-.896-.59-1.099-.795l-2.067 4.033c1.398.993 2.981 1.759 4.738 2.3 1.76.543 3.547.814 5.348.814 1.172 0 2.302-.13 3.388-.388 1.083-.261 2.028-.673 2.84-1.235a6.218 6.218 0 0 0 1.948-2.223c.487-.912.726-2.011.726-3.301 0-1.105-.18-2.035-.541-2.796a5.593 5.593 0 0 0-1.539-1.946c-.667-.542-1.479-.993-2.437-1.355-.958-.36-2.026-.7-3.2-1.016a55.999 55.999 0 0 1-2.385-.644c-.687-.2-1.257-.427-1.71-.677-.451-.247-.795-.534-1.032-.862-.237-.329-.354-.74-.354-1.238 0-.855.318-1.524.948-1.996.63-.474 1.588-.711 2.875-.711.726 0 1.434.089 2.132.268.7.185 1.349.404 1.95.662.596.258 1.104.524 1.52.797.417.269.706.482.862.644l2.068-3.794c-1.063-.724-2.302-1.35-3.724-1.88-1.424-.532-2.978-.798-4.67-.798M44.158 277.062H39.52v12.264c0 .993-.097 1.957-.287 2.892-.192.94-.52 1.77-.984 2.491a5.412 5.412 0 0 1-1.822 1.761c-.76.454-1.69.678-2.794.678-1.083 0-2-.219-2.742-.657a5.34 5.34 0 0 1-1.812-1.748c-.46-.722-.789-1.55-.979-2.488a14.305 14.305 0 0 1-.292-2.929v-12.264h-4.668v12.264c0 1.558.185 3.06.557 4.505.375 1.444.977 2.712 1.81 3.81.838 1.096 1.924 1.974 3.267 2.644 1.341.664 2.971.995 4.893.995 1.848 0 3.44-.315 4.77-.946 1.33-.633 2.418-1.493 3.267-2.576.844-1.084 1.466-2.348 1.86-3.791.395-1.444.593-2.994.593-4.64v-12.265zM53.5 288.951v-7.79h5.65c.41 0 .807.096 1.202.29.399.192.748.463 1.05.815.307.346.55.758.731 1.232.177.477.269.995.269 1.56 0 .54-.079 1.05-.237 1.522a4.081 4.081 0 0 1-.644 1.235c-.268.355-.593.63-.963.834-.375.2-.773.302-1.203.302H53.5zm5.957-11.888H48.829v24.048h4.67v-8.061h4.606l5.044 8.061h5.277l-5.65-9.04c1.33-.569 2.385-1.486 3.164-2.763.776-1.276 1.166-2.694 1.166-4.25 0-.971-.192-1.938-.575-2.897a8.66 8.66 0 0 0-1.588-2.574 7.94 7.94 0 0 0-2.424-1.826c-.935-.467-1.958-.698-3.062-.698zM88.022 277.062H71.64v24.049h16.69v-4.096H76.31v-6.269h10.12v-3.79h-10.12v-5.795h11.711zM97.567 291.831l3.45-9.718 3.354 9.718h-6.804zm5.348-14.768h-3.788l-9.477 24.049h4.939l2.197-5.993h8.431l2.197 5.993h4.945l-9.444-24.049zM119.602 277.062h-4.671v24.049h16.924v-4.096h-12.253zM166.314 277.062h-4.978l-7.173 13.684-7.11-13.684h-5.008v24.049h4.671v-15.92l6.194 11.855h2.539l6.194-11.855v15.92h4.671z"/>
        <g fill="#FFF">
            <path d="M191.97 277.062h-4.638v12.264c0 .993-.096 1.957-.286 2.892-.193.94-.521 1.77-.984 2.491a5.412 5.412 0 0 1-1.823 1.761c-.76.454-1.69.678-2.794.678-1.083 0-2-.219-2.741-.657a5.34 5.34 0 0 1-1.813-1.748c-.46-.722-.788-1.55-.981-2.488a14.49 14.49 0 0 1-.29-2.929v-12.264h-4.67v12.264c0 1.558.187 3.06.56 4.505.375 1.444.976 2.712 1.81 3.81.838 1.096 1.923 1.974 3.267 2.644 1.34.664 2.97.995 4.892.995 1.849 0 3.44-.315 4.77-.946 1.33-.633 2.419-1.493 3.268-2.576.843-1.084 1.465-2.348 1.859-3.791.395-1.444.593-2.994.593-4.64v-12.265zM204.66 276.893c-1.215 0-2.356.167-3.418.49a8.52 8.52 0 0 0-2.79 1.44 6.636 6.636 0 0 0-1.88 2.372c-.451.95-.678 2.034-.678 3.254 0 .925.143 1.727.425 2.402a4.76 4.76 0 0 0 1.27 1.764c.563.495 1.268.93 2.114 1.303.847.372 1.846.716 2.997 1.034.945.248 1.805.487 2.573.711.765.224 1.421.475 1.96.743.544.274.958.589 1.253.95.294.36.44.811.44 1.353 0 1.65-1.287 2.475-3.856 2.475a10.72 10.72 0 0 1-2.71-.341c-.88-.224-1.68-.5-2.401-.828a16.521 16.521 0 0 1-1.88-.985c-.529-.323-.899-.59-1.102-.795l-2.064 4.033c1.398.993 2.978 1.759 4.741 2.3 1.757.543 3.54.814 5.348.814 1.172 0 2.302-.13 3.382-.388 1.083-.261 2.03-.673 2.843-1.235a6.25 6.25 0 0 0 1.95-2.223c.482-.912.727-2.011.727-3.301 0-1.105-.182-2.035-.544-2.796a5.593 5.593 0 0 0-1.54-1.946c-.663-.542-1.475-.993-2.439-1.355a35.06 35.06 0 0 0-3.197-1.016c-.9-.224-1.698-.44-2.385-.644-.69-.2-1.258-.427-1.71-.677-.451-.247-.797-.534-1.034-.862-.235-.329-.354-.74-.354-1.238 0-.855.317-1.524.947-1.996.633-.474 1.594-.711 2.88-.711.721 0 1.432.089 2.13.268a13.87 13.87 0 0 1 1.947.662 9.988 9.988 0 0 1 1.523.797c.42.269.706.482.862.644l2.065-3.794c-1.06-.724-2.302-1.35-3.723-1.88-1.42-.532-2.976-.798-4.671-.798"/>
        </g>
        <path fill="#FFF" d="M217.455 301.112h4.671v-24.014h-4.67zM237.223 276.928c-1.83 0-3.452.351-4.874 1.05-1.419.7-2.624 1.615-3.606 2.743a12.197 12.197 0 0 0-2.252 3.843 12.802 12.802 0 0 0-.776 4.354c0 1.535.279 3.043.83 4.523.55 1.477 1.331 2.801 2.336 3.96a11.946 11.946 0 0 0 3.588 2.83c1.385.724 2.916 1.084 4.582 1.084.95 0 1.909-.123 2.88-.373.969-.245 1.896-.61 2.776-1.084a10.093 10.093 0 0 0 2.353-1.743 7.029 7.029 0 0 0 1.573-2.386l-3.825-2.205a5.564 5.564 0 0 1-1.047 1.678c-.432.464-.9.842-1.408 1.136a6.212 6.212 0 0 1-1.575.644c-.54.133-1.07.2-1.589.2a5.677 5.677 0 0 1-2.741-.677 7.03 7.03 0 0 1-2.15-1.795 8.322 8.322 0 0 1-1.389-2.59 9.757 9.757 0 0 1-.49-3.067c0-.948.141-1.902.425-2.86a8.33 8.33 0 0 1 1.25-2.575 6.577 6.577 0 0 1 2.083-1.847c.833-.474 1.804-.708 2.913-.708.495 0 1.013.062 1.555.184.541.126 1.065.321 1.572.592.51.274.977.638 1.41 1.102a5.491 5.491 0 0 1 1.046 1.712l3.588-2.475c-.748-1.558-1.898-2.822-3.471-3.794-1.567-.97-3.424-1.456-5.567-1.456M21.2 338.301l-5.366 13.567-2.732-6.558 2.752-6.918h-1.9l-2.127 5.526-2.102-5.526h-1.9l2.75 6.918-2.706 6.558L2.48 338.3H.308l6.621 15.896h1.747l3.177-7.501 3.153 7.501h1.742l6.644-15.896z"/>
        <g fill="#FFF">
            <path d="M27.195 347.57c.047-.553.177-1.061.393-1.522.216-.464.5-.863.854-1.196a3.747 3.747 0 0 1 1.216-.787 3.887 3.887 0 0 1 1.476-.282c.523 0 1.013.094 1.476.282.461.19.87.445 1.219.774a4.23 4.23 0 0 1 1.286 2.73h-7.92zm3.94-5.261c-.884 0-1.685.159-2.42.48-.726.322-1.359.76-1.89 1.31a6.067 6.067 0 0 0-1.229 1.925 6.225 6.225 0 0 0-.435 2.33c0 .82.143 1.6.435 2.337.294.74.695 1.386 1.221 1.935.521.553 1.146.99 1.88 1.314.73.317 1.536.476 2.416.476.58 0 1.135-.073 1.677-.221a5.896 5.896 0 0 0 1.463-.615c.44-.263.828-.573 1.162-.93.338-.357.601-.753.796-1.186l-1.7-.471c-.12.3-.294.568-.526.807a3.33 3.33 0 0 1-.791.602c-.302.164-.62.297-.964.394a3.87 3.87 0 0 1-1.052.148c-.505 0-.986-.099-1.442-.294a4.054 4.054 0 0 1-1.221-.803 4.164 4.164 0 0 1-.87-1.232 4.48 4.48 0 0 1-.403-1.59h9.685l.034-.317.013-.446c0-.774-.14-1.524-.416-2.25a5.857 5.857 0 0 0-1.172-1.903 5.739 5.739 0 0 0-1.849-1.308c-.72-.328-1.52-.492-2.403-.492zM49.944 352.943c-.417 0-.79-.065-1.117-.19a2.526 2.526 0 0 1-.828-.508 2.106 2.106 0 0 1-.516-.727 2.11 2.11 0 0 1-.177-.86c0-.714.305-1.28.917-1.688.612-.412 1.424-.618 2.44-.618.473 0 .97.047 1.489.143.51.102.997.24 1.463.417v1.722c0 .284-.143.59-.424.918-.344.39-.815.719-1.412.987a4.43 4.43 0 0 1-1.835.404m.81-10.633c-.81 0-1.584.125-2.33.378-.748.258-1.5.636-2.258 1.144l.646 1.274c1.299-.907 2.536-1.366 3.715-1.366.984 0 1.747.274 2.28.816.537.547.808 1.297.808 2.254v.94a7.753 7.753 0 0 0-1.547-.427 9.697 9.697 0 0 0-1.72-.156 7.17 7.17 0 0 0-1.977.258 4.944 4.944 0 0 0-1.57.737 3.421 3.421 0 0 0-1.015 1.162c-.237.456-.36.961-.36 1.511 0 .495.102.962.302 1.402.204.44.482.82.841 1.141.355.32.782.573 1.274.76a4.48 4.48 0 0 0 1.609.28c.403 0 .81-.045 1.218-.136a5.605 5.605 0 0 0 2.296-1.07c.342-.27.649-.584.914-.941l.047.828c.032.43.2.738.513.915.313.182.636.268.964.268l.377-.02.425-.066v-1.704c-.414-.015-.623-.253-.623-.714v-4.768c0-1.495-.435-2.65-1.296-3.468-.87-.823-2.047-1.232-3.534-1.232M65.449 342.419h-.383c-.745 0-1.448.266-2.104.797a5.914 5.914 0 0 0-1.588 2.004v-2.71h-1.833v11.686h1.968v-7.21c.31-.85.847-1.513 1.6-1.993.752-.477 1.621-.73 2.605-.758v-1.79l-.265-.026zM69.72 347.57c.045-.553.175-1.061.391-1.522a3.9 3.9 0 0 1 .851-1.196 3.787 3.787 0 0 1 1.219-.787c.46-.188.953-.282 1.476-.282.52 0 1.01.094 1.474.282.466.19.872.445 1.22.774a4.176 4.176 0 0 1 1.286 2.73h-7.917zm3.937-5.261c-.88 0-1.687.159-2.416.48a5.895 5.895 0 0 0-1.89 1.31 5.985 5.985 0 0 0-1.232 1.925 6.277 6.277 0 0 0-.435 2.33c0 .82.146 1.6.435 2.337.294.74.698 1.386 1.221 1.935.521.553 1.148.99 1.88 1.314.73.317 1.536.476 2.414.476.583 0 1.14-.073 1.676-.221a5.874 5.874 0 0 0 1.466-.615c.44-.263.828-.573 1.164-.93.336-.357.602-.753.794-1.186l-1.697-.471c-.123.3-.297.568-.529.807-.232.24-.497.438-.794.602a4.48 4.48 0 0 1-.96.394 3.87 3.87 0 0 1-1.053.148c-.507 0-.986-.099-1.442-.294a4.054 4.054 0 0 1-1.221-.803 4.22 4.22 0 0 1-.872-1.232 4.478 4.478 0 0 1-.401-1.59h9.683l.036-.317.01-.446c0-.774-.137-1.524-.413-2.25a5.908 5.908 0 0 0-1.175-1.903 5.744 5.744 0 0 0-1.843-1.308c-.726-.328-1.526-.492-2.406-.492zM91.37 338.614h-1.966v3.895h-1.591v1.548h1.59v7.855c0 .834.259 1.449.78 1.845.523.399 1.14.594 1.858.594.313 0 .615-.024.904-.078.294-.052.56-.117.807-.203.247-.081.466-.162.659-.243l.471-.213-.471-1.569c-.117.076-.336.175-.659.302-.32.125-.677.193-1.062.193-.344 0-.643-.096-.896-.294-.253-.193-.393-.506-.424-.94v-7.25h2.616v-1.547H91.37v-3.895zM99.334 337.854h-1.968v16.342h1.968v-7.053c.136-.446.331-.86.592-1.23a4.66 4.66 0 0 1 .895-.964c.333-.268.695-.48 1.086-.636a3.084 3.084 0 0 1 1.161-.237c.807 0 1.417.295 1.838.884.414.591.623 1.49.623 2.699v6.537h1.968v-6.988c0-.683-.063-1.329-.19-1.933-.125-.607-.33-1.123-.612-1.556a3.103 3.103 0 0 0-1.143-1.031c-.479-.253-1.06-.378-1.742-.378-.945 0-1.807.237-2.598.716-.792.477-1.414 1.139-1.878 1.99v-7.162zM112.551 347.57c.047-.553.177-1.061.393-1.522.216-.464.5-.863.854-1.196a3.747 3.747 0 0 1 1.216-.787 3.89 3.89 0 0 1 1.48-.282c.52 0 1.01.094 1.473.282.46.19.87.445 1.218.774a4.23 4.23 0 0 1 1.286 2.73h-7.92zm3.942-5.261c-.885 0-1.687.159-2.421.48-.727.322-1.36.76-1.89 1.31a6.067 6.067 0 0 0-1.23 1.925 6.225 6.225 0 0 0-.434 2.33c0 .82.143 1.6.435 2.337.294.74.695 1.386 1.22 1.935.521.553 1.146.99 1.88 1.314.73.317 1.537.476 2.414.476.583 0 1.138-.073 1.68-.221a5.896 5.896 0 0 0 1.463-.615c.44-.263.828-.573 1.164-.93.335-.357.598-.753.794-1.186l-1.7-.471c-.12.3-.295.568-.526.807a3.33 3.33 0 0 1-.792.602 4.65 4.65 0 0 1-.96.394 3.919 3.919 0 0 1-1.055.148c-.505 0-.987-.099-1.443-.294a4.054 4.054 0 0 1-1.22-.803 4.164 4.164 0 0 1-.87-1.232 4.48 4.48 0 0 1-.404-1.59h9.686l.031-.317.016-.446c0-.774-.141-1.524-.417-2.25a5.857 5.857 0 0 0-1.172-1.903 5.767 5.767 0 0 0-1.848-1.308c-.721-.328-1.52-.492-2.4-.492zM137.56 342.419h-.38c-.744 0-1.447.266-2.1.797a5.883 5.883 0 0 0-1.59 2.004v-2.71h-1.835v11.686h1.969v-7.21a3.894 3.894 0 0 1 1.598-1.993c.753-.477 1.625-.73 2.607-.758v-1.79l-.269-.026zM141.832 347.57c.047-.553.177-1.061.393-1.522.217-.464.5-.863.854-1.196a3.747 3.747 0 0 1 1.216-.787 3.887 3.887 0 0 1 1.477-.282 3.947 3.947 0 0 1 2.695 1.055c.35.329.64.728.872 1.2.234.468.37.979.414 1.531h-7.92zm3.94-5.261c-.883 0-1.685.159-2.42.48-.726.322-1.358.76-1.89 1.31a6.067 6.067 0 0 0-1.228 1.925 6.225 6.225 0 0 0-.435 2.33c0 .82.143 1.6.435 2.337.294.74.695 1.386 1.22 1.935.521.553 1.146.99 1.88 1.314.73.317 1.537.476 2.417.476.58 0 1.135-.073 1.677-.221a5.896 5.896 0 0 0 1.463-.615c.44-.263.828-.573 1.161-.93.339-.357.602-.753.797-1.186l-1.7-.471c-.12.3-.295.568-.526.807a3.33 3.33 0 0 1-.792.602c-.302.164-.62.297-.963.394a3.87 3.87 0 0 1-1.052.148c-.505 0-.987-.099-1.443-.294a4.054 4.054 0 0 1-1.22-.803 4.22 4.22 0 0 1-.873-1.232 4.534 4.534 0 0 1-.4-1.59h9.685l.034-.317.013-.446c0-.774-.14-1.524-.417-2.25a5.857 5.857 0 0 0-1.172-1.903 5.739 5.739 0 0 0-4.251-1.8z"/>
        </g>
        <path fill="#FFF" d="M162.435 342.51l-3.713 9.96-3.69-9.96h-2.035l4.606 11.686h2.103l4.609-11.686z"/>
        <g fill="#FFF">
            <path d="M171.718 352.718a3.485 3.485 0 0 1-1.507-.334 3.924 3.924 0 0 1-1.232-.92 4.305 4.305 0 0 1-.83-1.365 4.763 4.763 0 0 1-.302-1.704c0-.612.104-1.18.302-1.71.2-.53.479-.992.83-1.388.35-.396.76-.708 1.232-.94a3.352 3.352 0 0 1 1.507-.347c.537 0 1.04.112 1.508.334.471.226.888.534 1.247.932.354.391.633.855.833 1.386.206.532.302 1.095.302 1.691a4.68 4.68 0 0 1-.302 1.712c-.2.53-.479.993-.833 1.386-.36.399-.776.706-1.247.933a3.485 3.485 0 0 1-1.508.334m0-10.41a5.7 5.7 0 0 0-2.382.493 5.733 5.733 0 0 0-1.856 1.321 6.162 6.162 0 0 0-1.211 1.926 6.262 6.262 0 0 0-.432 2.326c0 .808.14 1.577.424 2.306.281.732.68 1.373 1.198 1.926.513.552 1.13.992 1.856 1.32.721.329 1.523.49 2.403.49.878 0 1.682-.161 2.404-.49a5.914 5.914 0 0 0 1.872-1.32 5.856 5.856 0 0 0 1.203-1.926c.286-.73.427-1.498.427-2.306 0-.82-.146-1.597-.438-2.326a6.017 6.017 0 0 0-1.208-1.926 5.738 5.738 0 0 0-1.864-1.32 5.795 5.795 0 0 0-2.396-.493M182.746 337.854h-1.966v14.036c0 .774.219 1.381.659 1.813.44.433 1.039.65 1.796.65.344 0 .742-.045 1.193-.136.445-.089.83-.203 1.158-.334l-.31-1.59-.63.191-.58.078c-.417 0-.742-.125-.974-.372-.232-.245-.346-.584-.346-1.016v-13.32zM197.933 342.51h-1.966v7.321c-.344.894-.87 1.6-1.578 2.116-.708.51-1.468.77-2.27.77-1.656 0-2.487-1.192-2.487-3.582v-6.625h-1.965v7.008c0 1.624.312 2.85.94 3.669.627.82 1.549 1.23 2.773 1.23a5.686 5.686 0 0 0 2.796-.704c.849-.469 1.536-1.146 2.06-2.027l.067 1.412c.029.357.17.644.424.86.253.219.604.326 1.05.326l.349-.024.434-.065v-1.701c-.419-.016-.627-.256-.627-.717v-9.267zM204.555 338.614h-1.965v3.895h-1.591v1.548h1.59v7.855c0 .834.258 1.449.782 1.845.52.399 1.137.594 1.856.594.313 0 .615-.024.904-.078.294-.052.56-.117.807-.203.247-.081.466-.162.658-.243l.472-.213-.472-1.569c-.117.076-.335.175-.658.302-.32.125-.677.193-1.063.193-.343 0-.643-.096-.895-.294-.253-.193-.393-.506-.425-.94v-7.25h2.617v-1.547h-2.617v-3.895z"/>
        </g>
        <path fill="#FFF" d="M210.55 340.314h1.972v-2.46h-1.971v2.46zm0 13.882h1.972v-11.685h-1.971v11.685z"/>
        <g fill="#FFF">
            <path d="M221.531 352.718a3.474 3.474 0 0 1-1.505-.334 3.965 3.965 0 0 1-1.234-.92 4.346 4.346 0 0 1-.828-1.365 4.763 4.763 0 0 1-.302-1.704c0-.612.104-1.18.302-1.71.2-.53.48-.992.828-1.388a3.989 3.989 0 0 1 1.234-.94 3.341 3.341 0 0 1 1.505-.347 3.48 3.48 0 0 1 1.51.334c.472.226.888.534 1.245.932.354.391.635.855.836 1.386.205.532.302 1.095.302 1.691a4.68 4.68 0 0 1-.302 1.712 4.37 4.37 0 0 1-.836 1.386 3.947 3.947 0 0 1-1.245.933 3.48 3.48 0 0 1-1.51.334m0-10.41c-.862 0-1.656.165-2.38.493a5.733 5.733 0 0 0-1.856 1.321 6.062 6.062 0 0 0-1.208 1.926 6.211 6.211 0 0 0-.435 2.326c0 .808.14 1.577.425 2.306a5.744 5.744 0 0 0 3.054 3.246c.72.329 1.523.49 2.4.49.88 0 1.685-.161 2.406-.49a5.874 5.874 0 0 0 1.87-1.32 5.82 5.82 0 0 0 1.205-1.926c.286-.73.427-1.498.427-2.306 0-.82-.146-1.597-.437-2.326a6.017 6.017 0 0 0-1.209-1.926 5.738 5.738 0 0 0-1.864-1.32 5.799 5.799 0 0 0-2.398-.493M237.193 342.31a5.71 5.71 0 0 0-2.854.737c-.872.495-1.536 1.152-2.002 1.97v-2.506h-1.789v11.685h1.971v-7.053c.133-.445.333-.86.602-1.23.268-.372.58-.693.94-.964.359-.268.742-.479 1.14-.635a3.332 3.332 0 0 1 1.208-.237c.779 0 1.354.284 1.737.852.377.565.567 1.477.567 2.73v6.537h1.966v-6.988c0-.698-.055-1.35-.164-1.946-.114-.597-.3-1.115-.573-1.555a2.85 2.85 0 0 0-1.07-1.027c-.45-.248-1.007-.37-1.68-.37"/>
        </g>
        <path fill="#FFF" d="M244.304 354.196h1.654v-2.509h-1.654zM0 325.432h246.885v-1.954H0z"/>
    </g>
</svg>
